<svg width="26" height="26" viewBox="0 0 26 26" fill="none" xmlns="http://www.w3.org/2000/svg">
<path fill-rule="evenodd" clip-rule="evenodd" d="M12.8345 0.811035C9.4789 0.811035 9.05778 0.825708 7.73984 0.885684C6.42447 0.945918 5.52662 1.15416 4.74101 1.45971C3.92837 1.77529 3.23902 2.19745 2.55225 2.88447C1.86497 3.57124 1.44281 4.26059 1.1262 5.07297C0.819881 5.85885 0.611379 6.75695 0.552175 8.0718C0.493228 9.38974 0.477783 9.81112 0.477783 13.1667C0.477783 16.5223 0.492713 16.9422 0.552432 18.2601C0.612924 19.5755 0.821168 20.4733 1.12646 21.2589C1.4423 22.0716 1.86445 22.7609 2.55148 23.4477C3.23799 24.135 3.92734 24.5581 4.73946 24.8737C5.52559 25.1793 6.4237 25.3875 7.73881 25.4478C9.05675 25.5077 9.47761 25.5224 12.833 25.5224C16.1888 25.5224 16.6086 25.5077 17.9266 25.4478C19.2419 25.3875 20.1408 25.1793 20.927 24.8737C21.7393 24.5581 22.4277 24.135 23.1142 23.4477C23.8015 22.7609 24.2236 22.0716 24.5402 21.2592C24.844 20.4733 25.0525 19.5752 25.1142 18.2603C25.1734 16.9424 25.1889 16.5223 25.1889 13.1667C25.1889 9.81112 25.1734 9.39 25.1142 8.07206C25.0525 6.75669 24.844 5.85885 24.5402 5.07323C24.2236 4.26059 23.8015 3.57124 23.1142 2.88447C22.4269 2.19719 21.7396 1.77504 20.9262 1.45971C20.1385 1.15416 19.2401 0.945918 17.9248 0.885684C16.6068 0.825708 16.1873 0.811035 12.8306 0.811035H12.8345ZM11.7264 3.0379C12.0554 3.03738 12.4224 3.0379 12.8348 3.0379C16.1338 3.0379 16.5248 3.04974 17.8275 3.10894C19.0322 3.16403 19.686 3.36532 20.1216 3.53444C20.6982 3.75839 21.1092 4.02609 21.5414 4.45854C21.9739 4.89099 22.2416 5.30285 22.466 5.87945C22.6352 6.31447 22.8367 6.96829 22.8915 8.17297C22.9507 9.47546 22.9636 9.86673 22.9636 13.1642C22.9636 16.4616 22.9507 16.8528 22.8915 18.1553C22.8365 19.36 22.6352 20.0138 22.466 20.4489C22.2421 21.0255 21.9739 21.436 21.5414 21.8682C21.109 22.3007 20.6984 22.5684 20.1216 22.7923C19.6865 22.9622 19.0322 23.163 17.8275 23.2181C16.525 23.2773 16.1338 23.2901 12.8348 23.2901C9.53556 23.2901 9.14456 23.2773 7.84206 23.2181C6.63738 23.1625 5.98356 22.9612 5.54777 22.7921C4.97117 22.5681 4.55931 22.3004 4.12686 21.868C3.69441 21.4355 3.42671 21.0247 3.20225 20.4478C3.03313 20.0128 2.83158 19.359 2.77675 18.1543C2.71754 16.8518 2.7057 16.4605 2.7057 13.1611C2.7057 9.86158 2.71754 9.47237 2.77675 8.16988C2.83183 6.9652 3.03313 6.31138 3.20225 5.87584C3.42619 5.29924 3.69441 4.88739 4.12686 4.45494C4.55931 4.02249 4.97117 3.75478 5.54777 3.53032C5.9833 3.36043 6.63738 3.15965 7.84206 3.10431C8.98187 3.05282 9.42359 3.03738 11.7264 3.03481V3.0379ZM19.43 5.08955C18.6114 5.08955 17.9473 5.7529 17.9473 6.57172C17.9473 7.39028 18.6114 8.0544 19.43 8.0544C20.2485 8.0544 20.9127 7.39028 20.9127 6.57172C20.9127 5.75316 20.2485 5.08904 19.43 5.08904V5.08955ZM12.8351 6.82164C9.33093 6.82164 6.48989 9.66267 6.48989 13.1668C6.48989 16.6709 9.33093 19.5107 12.8351 19.5107C16.3392 19.5107 19.1792 16.6709 19.1792 13.1668C19.1792 9.66267 16.3389 6.82164 12.8348 6.82164H12.8351ZM12.8346 9.04856C15.1091 9.04856 16.9532 10.8924 16.9532 13.1671C16.9532 15.4416 15.1091 17.2857 12.8346 17.2857C10.5599 17.2857 8.71606 15.4416 8.71606 13.1671C8.71606 10.8924 10.5599 9.04856 12.8346 9.04856Z" fill="url(#paint0_linear)"/>
<defs>
<linearGradient id="paint0_linear" x1="14.8882" y1="28.0455" x2="14.7276" y2="-3.7681" gradientUnits="userSpaceOnUse">
<stop stop-color="#A4A4A4"/>
<stop offset="0.269165" stop-color="#CBCBCB"/>
<stop offset="1" stop-color="white"/>
</linearGradient>
</defs>
</svg>
