<svg width="15" height="24" viewBox="0 0 15 24" fill="none" xmlns="http://www.w3.org/2000/svg">
<path fill-rule="evenodd" clip-rule="evenodd" d="M10.3818 6.56156C10.3818 5.19659 9.23159 4.08666 7.81753 4.08666C6.40459 4.08666 5.25327 5.19659 5.25327 6.56156C5.25327 7.92546 6.40459 9.0361 7.81753 9.0361C9.23159 9.0361 10.3818 7.92546 10.3818 6.56156ZM14.0107 6.56153C14.0107 9.85734 11.2337 12.5383 7.81751 12.5383C4.40207 12.5383 1.62436 9.85734 1.62436 6.56153C1.62436 3.26465 4.40207 0.583008 7.81751 0.583008C11.2337 0.583008 14.0107 3.26465 14.0107 6.56153ZM13.9352 15.9803C12.8153 16.6592 11.5995 17.1406 10.3389 17.4178L13.801 20.7601C14.5103 21.4433 14.5103 22.5529 13.801 23.2368C13.0925 23.9207 11.9441 23.9207 11.2364 23.2368L7.83242 19.9525L4.43143 23.2368C4.07681 23.5784 3.61213 23.7494 3.14745 23.7494C2.68351 23.7494 2.21957 23.5784 1.86494 23.2368C1.15644 22.5529 1.15644 21.4441 1.8642 20.7601L5.3267 17.4178C4.06606 17.1406 2.85026 16.6584 1.73043 15.9803C0.882963 15.4645 0.628389 14.3839 1.16236 13.5651C1.69486 12.7453 2.81469 12.4984 3.66364 13.0142C6.199 14.5538 9.4651 14.5541 12.0019 13.0142C12.8509 12.4984 13.9704 12.7453 14.504 13.5651C15.0379 14.3831 14.7826 15.4645 13.9352 15.9803Z" fill="url(#paint0_linear)"/>
<defs>
<linearGradient id="paint0_linear" x1="8.98889" y1="26.115" x2="8.73811" y2="-3.70854" gradientUnits="userSpaceOnUse">
<stop stop-color="#A4A4A4"/>
<stop offset="0.269165" stop-color="#CBCBCB"/>
<stop offset="1" stop-color="white"/>
</linearGradient>
</defs>
</svg>
