<svg width="30" height="17" viewBox="0 0 30 17" fill="none" xmlns="http://www.w3.org/2000/svg">
<path fill-rule="evenodd" clip-rule="evenodd" d="M16.1004 16.3531C16.1004 16.3531 16.6296 16.2954 16.9007 16.0096C17.1488 15.7477 17.1402 15.2536 17.1402 15.2536C17.1402 15.2536 17.1072 12.9461 18.1987 12.6054C19.2744 12.2703 20.6556 14.8368 22.1214 15.8237C23.2287 16.5699 24.0692 16.4066 24.0692 16.4066L27.9861 16.3531C27.9861 16.3531 30.0343 16.2292 29.0633 14.6482C28.983 14.5187 28.4967 13.4782 26.1517 11.3411C23.6948 9.10399 24.0247 9.46581 26.9822 5.59558C28.7836 3.23881 29.5036 1.79996 29.2784 1.18472C29.0647 0.596235 27.7394 0.752509 27.7394 0.752509L23.3305 0.779258C23.3305 0.779258 23.0035 0.735614 22.7611 0.877809C22.5245 1.01719 22.371 1.34241 22.371 1.34241C22.371 1.34241 21.6739 3.1656 20.7431 4.71707C18.7796 7.98896 17.9951 8.16212 17.6738 7.95939C16.9265 7.48494 17.113 6.05595 17.113 5.04088C17.113 1.86895 17.6035 0.54696 16.1592 0.204848C15.6802 0.0908104 15.3273 0.0161934 14.101 0.00352254C12.5276 -0.011964 11.1966 0.009154 10.4422 0.370976C9.94023 0.611722 9.55297 1.14953 9.78963 1.1805C10.0808 1.21851 10.7405 1.35508 11.0905 1.82249C11.5423 2.42647 11.5265 3.78083 11.5265 3.78083C11.5265 3.78083 11.7861 7.5145 10.9198 7.97769C10.326 8.29587 9.51138 7.64684 7.76014 4.67765C6.86373 3.15715 6.18676 1.47615 6.18676 1.47615C6.18676 1.47615 6.05624 1.1622 5.82245 0.993254C5.5399 0.789113 5.14548 0.725759 5.14548 0.725759L0.955992 0.752509C0.955992 0.752509 0.32635 0.769403 0.0954336 1.03831C-0.109666 1.27624 0.0796567 1.7704 0.0796567 1.7704C0.0796567 1.7704 3.35982 9.30391 7.07456 13.1009C10.4809 16.5812 14.3477 16.3531 14.3477 16.3531H16.1004Z" fill="url(#paint0_linear)"/>
<defs>
<linearGradient id="paint0_linear" x1="17.1007" y1="18.0984" x2="17.041" y2="-3.0434" gradientUnits="userSpaceOnUse">
<stop stop-color="#A4A4A4"/>
<stop offset="0.269165" stop-color="#CBCBCB"/>
<stop offset="1" stop-color="white"/>
</linearGradient>
</defs>
</svg>
