<svg fill="none" height="27" viewBox="0 0 26 27" width="26" xmlns="http://www.w3.org/2000/svg"><path d="m.966714 13.5161c-.246502-6.49015 5.438286-12.48783 11.934986-12.565642 3.3112-.282416 6.5325 1.003422 9.0384 3.100592-1.0279 1.13021-2.0738 2.24736-3.1909 3.29323-2.206-1.34025-4.8621-2.36163-7.4403-1.45453-4.15841 1.18408-6.67676 6.09395-5.13789 10.16215 1.27442 4.2487 6.44229 6.5804 10.49239 4.7956 2.0972-.7509 3.4799-2.686 4.0866-4.7652-2.4035-.0479-4.8076-.0179-7.2111-.0843-.006-1.4301-.012-2.8547-.006-4.2847 4.0082-.006 8.0225-.018 12.0367.018.2465 3.5038-.2704 7.2535-2.5483 10.0657-3.1191 4.0143-8.8817 5.1924-13.56957 3.6176-4.97521-1.6341-8.593303-6.6463-8.485016-11.8985z" fill="#000"/></svg>