<svg fill="none" height="30" viewBox="0 0 30 30" width="30" xmlns="http://www.w3.org/2000/svg" xmlns:xlink="http://www.w3.org/1999/xlink"><filter id="a" color-interpolation-filters="sRGB" filterUnits="userSpaceOnUse" height="28.2" width="28.2" x=".900391" y=".900024"><feFlood flood-opacity="0" result="BackgroundImageFix"/><feColorMatrix in="SourceAlpha" type="matrix" values="0 0 0 0 0 0 0 0 0 0 0 0 0 0 0 0 0 0 127 0"/><feOffset dy="1"/><feGaussianBlur stdDeviation=".5"/><feColorMatrix type="matrix" values="0 0 0 0 0.0464776 0 0 0 0 0.0658032 0 0 0 0 0.101138 0 0 0 0.1 0"/><feBlend in2="BackgroundImageFix" mode="normal" result="effect1_dropShadow"/><feBlend in="SourceGraphic" in2="effect1_dropShadow" mode="normal" result="shape"/></filter><radialGradient id="b" cx="0" cy="0" gradientTransform="matrix(9.23329751 8.57269487 -6.99531194 7.53436315 19.9167 8.72727)" gradientUnits="userSpaceOnUse" r="1"><stop offset=".174581" stop-color="#3f3e3e"/><stop offset="1" stop-color="#010101"/></radialGradient><g filter="url(#a)"><path clip-rule="evenodd" d="m26.4286 13.429h-21.47761l10.45311-10.45327c.2234-.22344.2234-.58515 0-.80859-.2235-.22285-.5846-.22285-.808 0l-11.42853 11.42876c-.22343.2234-.22343.5851 0 .808l11.42853 11.4292c.1114.1115.2577.1669.404.1669s.2925-.0554.404-.1669c.2234-.2234.2234-.5851 0-.8085l-10.45311-10.4533h21.47761c.316 0 .5714-.2554.5714-.5714 0-.3155-.2554-.5709-.5714-.5709z" fill="url(#b)" fill-rule="evenodd"/><path d="m26.4286 13.429h-21.47761l10.45311-10.45327c.2234-.22344.2234-.58515 0-.80859-.2235-.22285-.5846-.22285-.808 0l-11.42853 11.42876c-.22343.2234-.22343.5851 0 .808l11.42853 11.4292c.1114.1115.2577.1669.404.1669s.2925-.0554.404-.1669c.2234-.2234.2234-.5851 0-.8085l-10.45311-10.4533h21.47761c.316 0 .5714-.2554.5714-.5714 0-.3155-.2554-.5709-.5714-.5709" stroke="url(#b)" stroke-width="2.2"/></g></svg>