<svg fill="none" height="36" viewBox="0 0 36 36" width="36" xmlns="http://www.w3.org/2000/svg" xmlns:xlink="http://www.w3.org/1999/xlink"><linearGradient id="a"><stop offset="0" stop-color="#00aeff"/><stop offset="1" stop-color="#0076ff"/></linearGradient><linearGradient id="b" gradientUnits="userSpaceOnUse" x1="3.83789" x2="3.83789" xlink:href="#a" y1="6.39673" y2="29.4244"/><linearGradient id="c" gradientUnits="userSpaceOnUse" x1="12.793" x2="12.793" xlink:href="#a" y1="14.0728" y2="24.3074"/><g stroke-linecap="round" stroke-linejoin="round" stroke-width="2.38806"><path d="m31.9829 26.8658c0 .6786-.2696 1.3294-.7494 1.8092-.4799.4799-1.1307.7494-1.8093.7494h-23.02767c-.6786 0-1.3294-.2695-1.80923-.7494-.47984-.4798-.74941-1.1306-.74941-1.8092v-14.0725c0-.6786.26957-1.3294.74941-1.8092.47983-.4798 1.13063-.7494 1.80923-.7494h5.11727l2.5586-3.83797h7.6759l2.5587 3.83797h5.1172c.6786 0 1.3294.2696 1.8093.7494.4798.4798.7494 1.1306.7494 1.8092z" stroke="url(#b)"/><path d="m17.9102 24.3074c2.8262 0 5.1173-2.2911 5.1173-5.1173s-2.2911-5.1173-5.1173-5.1173-5.1172 2.2911-5.1172 5.1173 2.291 5.1173 5.1172 5.1173z" stroke="url(#c)"/></g></svg>