<svg fill="none" height="25" viewBox="0 0 25 25" width="25" xmlns="http://www.w3.org/2000/svg" xmlns:xlink="http://www.w3.org/1999/xlink"><filter id="a" color-interpolation-filters="sRGB" filterUnits="userSpaceOnUse" height="23.2" width="23.2111" x=".899902" y=".899994"><feFlood flood-opacity="0" result="BackgroundImageFix"/><feColorMatrix in="SourceAlpha" type="matrix" values="0 0 0 0 0 0 0 0 0 0 0 0 0 0 0 0 0 0 127 0"/><feOffset dy="1"/><feGaussianBlur stdDeviation=".5"/><feColorMatrix type="matrix" values="0 0 0 0 0.0464776 0 0 0 0 0.0658032 0 0 0 0 0.101138 0 0 0 0.1 0"/><feBlend in2="BackgroundImageFix" mode="normal" result="effect1_dropShadow"/><feBlend in="SourceGraphic" in2="effect1_dropShadow" mode="normal" result="shape"/></filter><g filter="url(#a)"><path clip-rule="evenodd" d="m3.45238 11.048h17.00312l-8.2754-8.27555c-.1769-.17688-.1769-.46324 0-.64013.1769-.17643.4628-.17643.6397 0l9.0475 9.04768c.1769.1769.1769.4633 0 .6397l-9.0475 9.0482c-.0882.0882-.204.1321-.3199.1321-.1158 0-.2316-.0439-.3198-.1321-.1769-.1769-.1769-.4632 0-.6401l8.2754-8.2755h-17.00312c-.25017 0-.45238-.2022-.45238-.4524 0-.2497.20221-.4519.45238-.4519z" fill="#000" fill-rule="evenodd"/><path d="m3.45238 11.048h17.00312l-8.2754-8.27555c-.1769-.17688-.1769-.46324 0-.64013.1769-.17643.4628-.17643.6397 0l9.0475 9.04768c.1769.1769.1769.4633 0 .6397l-9.0475 9.0482c-.0882.0882-.204.1321-.3199.1321-.1158 0-.2316-.0439-.3198-.1321-.1769-.1769-.1769-.4632 0-.6401l8.2754-8.2755h-17.00312c-.25017 0-.45238-.2022-.45238-.4524 0-.2497.20221-.4519.45238-.4519" stroke="#000" stroke-width="2.2"/></g></svg>