<svg fill="none" height="72" viewBox="0 0 72 72" width="72" xmlns="http://www.w3.org/2000/svg" xmlns:xlink="http://www.w3.org/1999/xlink"><linearGradient id="a"><stop offset="0" stop-color="#a5aab7"/><stop offset="1" stop-color="#848993"/></linearGradient><linearGradient id="b" gradientUnits="userSpaceOnUse" x1="35.9399" x2="35.9399" xlink:href="#a" y1="13.5327" y2="58.7588"/><linearGradient id="c" gradientUnits="userSpaceOnUse" x1="35.9399" x2="35.9399" xlink:href="#a" y1="28.6081" y2="48.7086"/><g stroke-linecap="round" stroke-linejoin="round" stroke-width="5.02513"><path d="m63.5781 53.7337c0 1.3328-.5294 2.6109-1.4718 3.5533s-2.2205 1.4718-3.5533 1.4718h-45.2261c-1.3328 0-2.6109-.5294-3.55332-1.4718-.94239-.9424-1.47182-2.2205-1.47182-3.5533v-27.6382c0-1.3327.52943-2.6109 1.47182-3.5533.94242-.9424 2.22052-1.4718 3.55332-1.4718h10.0502l5.0252-7.5377h15.0753l5.0252 7.5377h10.0502c1.3328 0 2.6109.5294 3.5533 1.4718s1.4718 2.2206 1.4718 3.5533z" stroke="url(#b)"/><path d="m35.9399 48.7086c5.5506 0 10.0503-4.4997 10.0503-10.0503s-4.4997-10.0502-10.0503-10.0502-10.0503 4.4996-10.0503 10.0502 4.4997 10.0503 10.0503 10.0503z" stroke="url(#c)"/></g></svg>