<svg fill="none" height="25" viewBox="0 0 25 25" width="25" xmlns="http://www.w3.org/2000/svg"><path d="m8.64645 12.5c0-2.1285 1.72505-3.85448 3.85355-3.85448s3.8545 1.72598 3.8545 3.85448-1.726 3.8545-3.8545 3.8545-3.85355-1.726-3.85355-3.8545zm-2.08366 0c0 3.2791 2.65808 5.9372 5.93721 5.9372 3.2791 0 5.9372-2.6581 5.9372-5.9372 0-3.27913-2.6581-5.9372-5.9372-5.9372-3.27913 0-5.93721 2.65807-5.93721 5.9372zm10.72191-6.17262c-.0001.27442.0812.54272.2336.77095.1523.22823.369.40616.6225.51128s.5324.1327.8016.07928c.2692-.05343.5164-.18548.7106-.37945.1941-.19397.3263-.44114.38-.71027.0536-.26913.0263-.54812-.0787-.80169-.1049-.25358-.2826-.47035-.5107-.6229-.2282-.15255-.4964-.23403-.7708-.23414h-.0006c-.3678.00017-.7205.14633-.9807.40638-.2601.26005-.4064.61272-.4068.98056zm-9.45595 15.58422c-1.1273-.0513-1.74002-.2391-2.1472-.3978-.53983-.2101-.925-.4604-1.32997-.8648-.40496-.4044-.65564-.7892-.86487-1.3291-.15873-.407-.34651-1.0199-.39775-2.1472-.05606-1.2187-.06725-1.5849-.06725-4.6726 0-3.08775.01212-3.45285.06725-4.67264.05133-1.1273.2405-1.73901.39775-2.14721.21016-.53983.46046-.925.86487-1.32996.40441-.40497.78921-.65564 1.32997-.86488.407-.15873 1.0199-.3465 2.1472-.39775 1.21878-.05605 1.58489-.06724 4.67125-.06724 3.0864 0 3.4528.01211 4.6726.06724 1.1273.05134 1.739.2405 2.1472.39775.5399.20924.925.46047 1.33.86488s.6547.79013.8649 1.32996c.1587.407.3465 1.01991.3977 2.14721.0561 1.21979.0673 1.58489.0673 4.67264 0 3.0877-.0112 3.4528-.0673 4.6726-.0513 1.1273-.24 1.74-.3977 2.1472-.2102.5399-.4605.925-.8649 1.3291-.4044.404-.7901.6547-1.33.8648-.407.1588-1.0199.3466-2.1472.3978-1.2187.0561-1.5849.0672-4.6726.0672-3.08774 0-3.45284-.0111-4.67125-.0672zm-.09574-20.90408c-1.2309.05606-2.072.25123-2.80654.53706-.76072.29516-1.40471.69116-2.04823 1.33366-.64352.64251-1.0385 1.28751-1.33366 2.04823-.28583.73501-.481 1.57565-.53706 2.80654-.056977 1.23284-.07002 1.62698-.07002 4.76699 0 3.14.013043 3.5341.07002 4.767.05606 1.231.25123 2.0715.53706 2.8065.29516.7603.69023 1.406 1.33366 2.0483.64343.6422 1.28751 1.0376 2.04823 1.3336.73593.2858 1.57564.481 2.80654.5371 1.23349.056 1.62698.07 4.76699.07 3.14 0 3.5341-.013 4.767-.07 1.231-.0561 2.0715-.2513 2.8065-.5371.7603-.296 1.4047-.6911 2.0483-1.3336.6435-.6425 1.0376-1.288 1.3336-2.0483.2858-.735.4819-1.5756.5371-2.8065.056-1.2338.0691-1.627.0691-4.767 0-3.14001-.0131-3.53415-.0691-4.76699-.0561-1.23099-.2513-2.072-.5371-2.80654-.296-.76026-.6911-1.40471-1.3336-2.04823-.6426-.64352-1.288-1.0385-2.0473-1.33366-.736-.28583-1.5766-.48193-2.8066-.53706-1.2328-.056052-1.627-.07002-4.767-.07002-3.13998 0-3.5344.013043-4.76789.07002z" fill="#000"/></svg>