<svg fill="none" height="69" viewBox="0 0 182 69" width="182" xmlns="http://www.w3.org/2000/svg" xmlns:xlink="http://www.w3.org/1999/xlink"><filter id="a" color-interpolation-filters="sRGB" filterUnits="userSpaceOnUse" height="74.4237" width="79.6501" x="-10.1886" y="-6.64614"><feFlood flood-opacity="0" result="BackgroundImageFix"/><feBlend in="SourceGraphic" in2="BackgroundImageFix" mode="normal" result="shape"/><feColorMatrix in="SourceAlpha" result="hardAlpha" type="matrix" values="0 0 0 0 0 0 0 0 0 0 0 0 0 0 0 0 0 0 127 0"/><feOffset dx="-10.1886" dy="-7.27756"/><feGaussianBlur stdDeviation="10.9163"/><feComposite in2="hardAlpha" k2="-1" k3="1" operator="arithmetic"/><feColorMatrix type="matrix" values="0 0 0 0 0 0 0 0 0 0 0 0 0 0 0 0 0 0 0.15 0"/><feBlend in2="shape" mode="normal" result="effect1_innerShadow"/></filter><filter id="b" color-interpolation-filters="sRGB" filterUnits="userSpaceOnUse" height="50.9994" width="50.9994" x="9.23145" y="8.59966"><feFlood flood-opacity="0" result="BackgroundImageFix"/><feBlend in="SourceGraphic" in2="BackgroundImageFix" mode="normal" result="shape"/><feColorMatrix in="SourceAlpha" result="hardAlpha" type="matrix" values="0 0 0 0 0 0 0 0 0 0 0 0 0 0 0 0 0 0 127 0"/><feOffset/><feGaussianBlur stdDeviation="2.18101"/><feComposite in2="hardAlpha" k2="-1" k3="1" operator="arithmetic"/><feColorMatrix type="matrix" values="0 0 0 0 0 0 0 0 0 0 0 0 0 0 0 0 0 0 0.9 0"/><feBlend in2="shape" mode="normal" result="effect1_innerShadow"/></filter><filter id="c" color-interpolation-filters="sRGB" filterUnits="userSpaceOnUse" height="17.5268" width="17.5268" x="34.9823" y="19.7927"><feFlood flood-opacity="0" result="BackgroundImageFix"/><feColorMatrix in="SourceAlpha" type="matrix" values="0 0 0 0 0 0 0 0 0 0 0 0 0 0 0 0 0 0 127 0"/><feOffset dy="2.18269"/><feGaussianBlur stdDeviation="1.09135"/><feColorMatrix type="matrix" values="0 0 0 0 0 0 0 0 0 0 0 0 0 0 0 0 0 0 0.25 0"/><feBlend in2="BackgroundImageFix" mode="normal" result="effect1_dropShadow"/><feColorMatrix in="SourceAlpha" type="matrix" values="0 0 0 0 0 0 0 0 0 0 0 0 0 0 0 0 0 0 127 0"/><feOffset dy=".727004"/><feGaussianBlur stdDeviation=".363502"/><feColorMatrix type="matrix" values="0 0 0 0 0 0 0 0 0 0 0 0 0 0 0 0 0 0 0.25 0"/><feBlend in2="effect1_dropShadow" mode="normal" result="effect2_dropShadow"/><feBlend in="SourceGraphic" in2="effect2_dropShadow" mode="normal" result="shape"/></filter><filter id="d" color-interpolation-filters="sRGB" filterUnits="userSpaceOnUse" height="37.381" width="30.0394" x="14.7734" y="18.4377"><feFlood flood-opacity="0" result="BackgroundImageFix"/><feColorMatrix in="SourceAlpha" type="matrix" values="0 0 0 0 0 0 0 0 0 0 0 0 0 0 0 0 0 0 127 0"/><feOffset dy="2.18269"/><feGaussianBlur stdDeviation="1.09135"/><feColorMatrix type="matrix" values="0 0 0 0 0 0 0 0 0 0 0 0 0 0 0 0 0 0 0.25 0"/><feBlend in2="BackgroundImageFix" mode="normal" result="effect1_dropShadow"/><feColorMatrix in="SourceAlpha" type="matrix" values="0 0 0 0 0 0 0 0 0 0 0 0 0 0 0 0 0 0 127 0"/><feOffset dy=".727004"/><feGaussianBlur stdDeviation=".363502"/><feColorMatrix type="matrix" values="0 0 0 0 0 0 0 0 0 0 0 0 0 0 0 0 0 0 0.25 0"/><feBlend in2="effect1_dropShadow" mode="normal" result="effect2_dropShadow"/><feBlend in="SourceGraphic" in2="effect2_dropShadow" mode="normal" result="shape"/></filter><filter id="e" color-interpolation-filters="sRGB" filterUnits="userSpaceOnUse" height="38.6929" width="101.624" x="79.688" y="16.6852"><feFlood flood-opacity="0" result="BackgroundImageFix"/><feColorMatrix in="SourceAlpha" type="matrix" values="0 0 0 0 0 0 0 0 0 0 0 0 0 0 0 0 0 0 127 0"/><feOffset dy="1.31204"/><feGaussianBlur stdDeviation=".656018"/><feColorMatrix type="matrix" values="0 0 0 0 0 0 0 0 0 0 0 0 0 0 0 0 0 0 0.25 0"/><feBlend in2="BackgroundImageFix" mode="normal" result="effect1_dropShadow"/><feBlend in="SourceGraphic" in2="effect1_dropShadow" mode="normal" result="shape"/></filter><linearGradient id="f" gradientUnits="userSpaceOnUse" x1="34.7308" x2="34.7308" y1=".631424" y2="67.7776"><stop offset="0" stop-color="#1ac9fc"/><stop offset="1" stop-color="#1d73f1"/></linearGradient><linearGradient id="g"><stop offset="0" stop-color="#2fa9ed"/><stop offset="1" stop-color="#0047ff"/></linearGradient><linearGradient id="h" gradientUnits="userSpaceOnUse" x1="34.7308" x2="34.7308" xlink:href="#g" y1=".631424" y2="67.7776"/><linearGradient id="i" gradientUnits="userSpaceOnUse" x1="34.7308" x2="34.7308" xlink:href="#g" y1="9.47206" y2="58.7266"/><linearGradient id="j" gradientUnits="userSpaceOnUse" x1="10.1035" x2="10.1035" y1="9.47206" y2="58.7266"><stop offset="0" stop-color="#00aeff"/><stop offset="1" stop-color="#0076ff"/></linearGradient><linearGradient id="k"><stop offset="0" stop-color="#a4a4a4"/><stop offset=".269165" stop-color="#cbcbcb"/><stop offset="1" stop-color="#fff"/></linearGradient><linearGradient id="l" gradientUnits="userSpaceOnUse" x1="44.0784" x2="44.0037" xlink:href="#k" y1="34.0044" y2="19.1861"/><linearGradient id="m"><stop offset="0" stop-color="#fbfbfb"/><stop offset="1" stop-color="#848993"/></linearGradient><radialGradient id="n" cx="0" cy="0" gradientTransform="matrix(-9.1893223 6.51483408 -6.51483408 -9.1893223 44.5561 27.4223)" gradientUnits="userSpaceOnUse" r="1" xlink:href="#m"/><linearGradient id="o" gradientUnits="userSpaceOnUse" x1="23.671" x2="23.1029" xlink:href="#k" y1="58.5581" y2="18.466"/><radialGradient id="p" cx="0" cy="0" gradientTransform="matrix(-8.85352558 17.62933029 -14.98532395 -7.52569421 24.1312 40.7466)" gradientUnits="userSpaceOnUse" r="1" xlink:href="#m"/><linearGradient id="q"><stop offset=".174581" stop-color="#3f3e3e"/><stop offset="1" stop-color="#010101"/></linearGradient><radialGradient id="r" cx="0" cy="0" gradientTransform="matrix(-2.25594626 12.81058023 -6.0362585 -1.06298657 108.582 28.9092)" gradientUnits="userSpaceOnUse" r="1" xlink:href="#q"/><radialGradient id="s" cx="0" cy="0" gradientTransform="matrix(8.46639903 9.91182868 -4.75850657 4.06457948 91.5328 26.8548)" gradientUnits="userSpaceOnUse" r="1" xlink:href="#q"/><radialGradient id="t" cx="0" cy="0" gradientTransform="matrix(9.86599659 10.43828915 -8.52759459 8.0600583 155.435 28.1888)" gradientUnits="userSpaceOnUse" r="1" xlink:href="#q"/><radialGradient id="u" cx="0" cy="0" gradientTransform="matrix(3.90054079 11.60999297 -5.73577846 1.92701562 127.508 27.319)" gradientUnits="userSpaceOnUse" r="1" xlink:href="#q"/><radialGradient id="v" cx="0" cy="0" gradientTransform="matrix(-3.90043947 -11.61002701 5.73579527 -1.92696557 172.854 41.6013)" gradientUnits="userSpaceOnUse" r="1" xlink:href="#q"/><g filter="url(#a)"><rect fill="url(#f)" height="67.1461" rx="25.6797" width="69.4615" y=".631424"/></g><rect height="66.5147" rx="25.364" stroke="url(#h)" stroke-width=".631468" width="68.8301" x=".315734" y=".947158"/><g filter="url(#b)"><rect fill="url(#i)" height="49.2545" rx="24.6273" width="49.2545" x="10.1035" y="9.47206"/></g><rect height="49.2545" rx="24.6273" stroke="url(#j)" stroke-width="1.74481" width="49.2545" x="10.1035" y="9.47206"/><g filter="url(#c)"><rect fill="url(#l)" height="11.5102" rx="5.75512" transform="matrix(.99335442 -.11509561 .11509561 .99335442 -2.205403 4.442363)" width="11.5102" x="37.3662" y="21.319"/><rect height="11.5102" rx="5.75512" stroke="url(#n)" stroke-width=".363502" transform="matrix(.99335442 -.11509561 .11509561 .99335442 -2.205403 4.442363)" width="11.5102" x="37.3662" y="21.319"/></g><g filter="url(#d)"><rect fill="url(#o)" height="31.1472" rx="5.54479" transform="matrix(.8660254 -.5 .5 .8660254 -9.810438 11.848348)" width="11.0896" x="17.2041" y="24.2307"/><rect height="31.1472" rx="5.54479" stroke="url(#p)" stroke-width=".363502" transform="matrix(.8660254 -.5 .5 .8660254 -9.810438 11.848348)" width="11.0896" x="17.2041" y="24.2307"/></g><g filter="url(#e)"><path d="m104.341 21.4783c1.305-2.4998 4.39-3.4684 6.889-2.1633 2.5 1.305 3.469 4.3894 2.164 6.8892l-11.34 21.7214c-1.305 2.4998-4.3896 3.4684-6.8894 2.1633-2.4998-1.305-3.4684-4.3894-2.1633-6.8892z" fill="url(#r)"/><path d="m83.0028 25.5162c-1.1061-2.665.1576-5.7221 2.8227-6.8282 2.665-1.1061 5.7221.1576 6.8283 2.8226l9.3022 22.4123c1.106 2.6651-.158 5.7222-2.8228 6.8283-2.665 1.1061-5.7221-.1576-6.8283-2.8227z" fill="url(#s)"/><path d="m159.399 42.3575h-11.043l13.188-16.5596c.684-.8856.958-1.594.958-2.391 0-1.8596-1.597-3.4093-3.605-3.4093h-16.427c-2.053 0-3.605 1.4611-3.605 3.4093 0 1.9925 1.552 3.4536 3.605 3.4536h9.172l-13.324 16.6039c-.639.797-.959 1.4612-.959 2.3024 0 1.9039 1.597 3.4536 3.651 3.4536h18.389c2.053 0 3.605-1.4611 3.605-3.4536 0-1.9482-1.506-3.4093-3.605-3.4093z" fill="url(#t)"/><path d="m120.361 23.3404c0-2.8344 2.27-5.1321 5.07-5.1321 2.799 0 5.069 2.2977 5.069 5.1321v22.2388c0 2.8344-2.27 5.1321-5.069 5.1321-2.8 0-5.07-2.2977-5.07-5.1321z" fill="url(#u)"/><path d="m180 45.5799c0 2.8343-2.27 5.132-5.069 5.132-2.8 0-5.07-2.2977-5.07-5.132v-22.2389c0-2.8343 2.27-5.132 5.07-5.132 2.799 0 5.069 2.2977 5.069 5.132z" fill="url(#v)"/></g></svg>