<svg fill="none" height="25" viewBox="0 0 25 25" width="25" xmlns="http://www.w3.org/2000/svg" xmlns:xlink="http://www.w3.org/1999/xlink"><filter id="a" color-interpolation-filters="sRGB" filterUnits="userSpaceOnUse" height="14.7727" width="16.4773" x="4.54599" y="6.25"><feFlood flood-opacity="0" result="BackgroundImageFix"/><feColorMatrix in="SourceAlpha" type="matrix" values="0 0 0 0 0 0 0 0 0 0 0 0 0 0 0 0 0 0 127 0"/><feOffset dx=".568182" dy="1.13636"/><feGaussianBlur stdDeviation="1.98864"/><feColorMatrix type="matrix" values="0 0 0 0 1 0 0 0 0 1 0 0 0 0 1 0 0 0 0.366887 0"/><feBlend in2="BackgroundImageFix" mode="normal" result="effect1_dropShadow"/><feBlend in="SourceGraphic" in2="effect1_dropShadow" mode="normal" result="shape"/><feColorMatrix in="SourceAlpha" result="hardAlpha" type="matrix" values="0 0 0 0 0 0 0 0 0 0 0 0 0 0 0 0 0 0 127 0"/><feOffset dx="1.13636" dy="1.13636"/><feGaussianBlur stdDeviation=".568182"/><feComposite in2="hardAlpha" k2="-1" k3="1" operator="arithmetic"/><feColorMatrix type="matrix" values="0 0 0 0 1 0 0 0 0 1 0 0 0 0 1 0 0 0 0.189685 0"/><feBlend in2="shape" mode="normal" result="effect2_innerShadow"/></filter><linearGradient id="b" gradientUnits="userSpaceOnUse" x1="12.5" x2="12.5" y1="0" y2="25"><stop offset="0" stop-color="#06df57"/><stop offset="1" stop-color="#18ad00"/></linearGradient><path clip-rule="evenodd" d="m12.5 25c6.9036 0 12.5-5.5964 12.5-12.5 0-6.90356-5.5964-12.5-12.5-12.5-6.90356 0-12.5 5.59644-12.5 12.5 0 6.9036 5.59644 12.5 12.5 12.5z" fill="url(#b)" fill-rule="evenodd"/><g filter="url(#a)"><path clip-rule="evenodd" d="m15.4764 9.29113c.2033-.2391.5618-.26817.8009-.06494s.2682.56181.065.80091l-4.8296 5.6818c-.2064.2429-.5722.2684-.8104.0567l-2.5568-2.2727c-.23453-.2085-.25566-.5676-.04718-.8022.20847-.2345.56761-.2556.80214-.0472l2.12264 1.8868z" fill="#fff" fill-rule="evenodd"/></g></svg>